<mxfile host="app.diagrams.net" agent="Mozilla/5.0 (X11; Linux x86_64) AppleWebKit/537.36 (KHTML, like Gecko) Chrome/127.0.0.0 Safari/537.36" version="24.7.6">
  <diagram name="Page-1" id="E3z9Q_KfqXvJC9M_8mQK">
    <mxGraphModel dx="1064" dy="608" grid="1" gridSize="10" guides="1" tooltips="1" connect="1" arrows="1" fold="1" page="1" pageScale="1" pageWidth="850" pageHeight="1100" math="0" shadow="0">
      <root>
        <mxCell id="0" />
        <mxCell id="1" parent="0" />
        <mxCell id="kkvQ3iogN1wn-RU69tWy-3" value="" style="edgeStyle=orthogonalEdgeStyle;rounded=0;orthogonalLoop=1;jettySize=auto;html=1;" edge="1" parent="1" source="kkvQ3iogN1wn-RU69tWy-1" target="kkvQ3iogN1wn-RU69tWy-2">
          <mxGeometry relative="1" as="geometry" />
        </mxCell>
        <mxCell id="kkvQ3iogN1wn-RU69tWy-1" value="packet" style="ellipse;whiteSpace=wrap;html=1;" vertex="1" parent="1">
          <mxGeometry x="270" y="50" width="120" height="80" as="geometry" />
        </mxCell>
        <mxCell id="kkvQ3iogN1wn-RU69tWy-5" value="" style="edgeStyle=orthogonalEdgeStyle;rounded=0;orthogonalLoop=1;jettySize=auto;html=1;" edge="1" parent="1" source="kkvQ3iogN1wn-RU69tWy-2" target="kkvQ3iogN1wn-RU69tWy-4">
          <mxGeometry relative="1" as="geometry" />
        </mxCell>
        <mxCell id="kkvQ3iogN1wn-RU69tWy-7" value="Yes" style="edgeLabel;html=1;align=center;verticalAlign=middle;resizable=0;points=[];" vertex="1" connectable="0" parent="kkvQ3iogN1wn-RU69tWy-5">
          <mxGeometry x="-0.06" y="3" relative="1" as="geometry">
            <mxPoint as="offset" />
          </mxGeometry>
        </mxCell>
        <mxCell id="kkvQ3iogN1wn-RU69tWy-9" value="" style="edgeStyle=orthogonalEdgeStyle;rounded=0;orthogonalLoop=1;jettySize=auto;html=1;" edge="1" parent="1" source="kkvQ3iogN1wn-RU69tWy-2">
          <mxGeometry relative="1" as="geometry">
            <mxPoint x="330" y="330" as="targetPoint" />
          </mxGeometry>
        </mxCell>
        <mxCell id="kkvQ3iogN1wn-RU69tWy-15" value="No" style="edgeLabel;html=1;align=center;verticalAlign=middle;resizable=0;points=[];" vertex="1" connectable="0" parent="kkvQ3iogN1wn-RU69tWy-9">
          <mxGeometry x="-0.1288" relative="1" as="geometry">
            <mxPoint as="offset" />
          </mxGeometry>
        </mxCell>
        <mxCell id="kkvQ3iogN1wn-RU69tWy-2" value="In forward mapping?" style="rhombus;whiteSpace=wrap;html=1;" vertex="1" parent="1">
          <mxGeometry x="250" y="180" width="160" height="100" as="geometry" />
        </mxCell>
        <mxCell id="kkvQ3iogN1wn-RU69tWy-23" style="edgeStyle=orthogonalEdgeStyle;rounded=0;orthogonalLoop=1;jettySize=auto;html=1;entryX=1;entryY=0.5;entryDx=0;entryDy=0;" edge="1" parent="1" source="kkvQ3iogN1wn-RU69tWy-4" target="kkvQ3iogN1wn-RU69tWy-20">
          <mxGeometry relative="1" as="geometry">
            <Array as="points">
              <mxPoint x="660" y="230" />
              <mxPoint x="660" y="630" />
            </Array>
          </mxGeometry>
        </mxCell>
        <mxCell id="kkvQ3iogN1wn-RU69tWy-4" value="Forward to target nic" style="whiteSpace=wrap;html=1;" vertex="1" parent="1">
          <mxGeometry x="510" y="200" width="120" height="60" as="geometry" />
        </mxCell>
        <mxCell id="kkvQ3iogN1wn-RU69tWy-13" value="" style="edgeStyle=orthogonalEdgeStyle;rounded=0;orthogonalLoop=1;jettySize=auto;html=1;" edge="1" parent="1" source="kkvQ3iogN1wn-RU69tWy-10" target="kkvQ3iogN1wn-RU69tWy-12">
          <mxGeometry relative="1" as="geometry" />
        </mxCell>
        <mxCell id="kkvQ3iogN1wn-RU69tWy-14" value="Yes" style="edgeLabel;html=1;align=center;verticalAlign=middle;resizable=0;points=[];" vertex="1" connectable="0" parent="kkvQ3iogN1wn-RU69tWy-13">
          <mxGeometry x="-0.02" y="-1" relative="1" as="geometry">
            <mxPoint as="offset" />
          </mxGeometry>
        </mxCell>
        <mxCell id="kkvQ3iogN1wn-RU69tWy-19" value="No" style="edgeStyle=orthogonalEdgeStyle;rounded=0;orthogonalLoop=1;jettySize=auto;html=1;" edge="1" parent="1" source="kkvQ3iogN1wn-RU69tWy-10" target="kkvQ3iogN1wn-RU69tWy-18">
          <mxGeometry relative="1" as="geometry" />
        </mxCell>
        <mxCell id="kkvQ3iogN1wn-RU69tWy-10" value="Target port is listening port?" style="rhombus;whiteSpace=wrap;html=1;" vertex="1" parent="1">
          <mxGeometry x="250" y="330" width="160" height="100" as="geometry" />
        </mxCell>
        <mxCell id="kkvQ3iogN1wn-RU69tWy-22" style="edgeStyle=orthogonalEdgeStyle;rounded=0;orthogonalLoop=1;jettySize=auto;html=1;entryX=1;entryY=0.5;entryDx=0;entryDy=0;" edge="1" parent="1" source="kkvQ3iogN1wn-RU69tWy-12" target="kkvQ3iogN1wn-RU69tWy-20">
          <mxGeometry relative="1" as="geometry">
            <Array as="points">
              <mxPoint x="660" y="380" />
              <mxPoint x="660" y="630" />
            </Array>
          </mxGeometry>
        </mxCell>
        <mxCell id="kkvQ3iogN1wn-RU69tWy-12" value="Forward to tap user" style="whiteSpace=wrap;html=1;" vertex="1" parent="1">
          <mxGeometry x="510" y="350" width="120" height="60" as="geometry" />
        </mxCell>
        <mxCell id="kkvQ3iogN1wn-RU69tWy-21" value="" style="edgeStyle=orthogonalEdgeStyle;rounded=0;orthogonalLoop=1;jettySize=auto;html=1;" edge="1" parent="1" source="kkvQ3iogN1wn-RU69tWy-18" target="kkvQ3iogN1wn-RU69tWy-20">
          <mxGeometry relative="1" as="geometry" />
        </mxCell>
        <mxCell id="kkvQ3iogN1wn-RU69tWy-18" value="Pass it to the kernel&amp;nbsp;" style="whiteSpace=wrap;html=1;" vertex="1" parent="1">
          <mxGeometry x="270" y="480" width="120" height="60" as="geometry" />
        </mxCell>
        <mxCell id="kkvQ3iogN1wn-RU69tWy-20" value="End" style="ellipse;whiteSpace=wrap;html=1;" vertex="1" parent="1">
          <mxGeometry x="260" y="590" width="140" height="80" as="geometry" />
        </mxCell>
      </root>
    </mxGraphModel>
  </diagram>
</mxfile>
